<svg width="27" height="30" viewBox="0 0 27 30" fill="none" xmlns="http://www.w3.org/2000/svg">
<path d="M22.6088 18.5693L17.8191 16.0955L17.8059 16.0884C17.5572 15.9659 17.2859 15.9167 17.0166 15.9453C16.7473 15.974 16.4885 16.0795 16.2635 16.2525C16.237 16.2727 16.2115 16.2946 16.1872 16.3181L13.7125 18.7498C12.1448 17.872 10.5261 16.0205 9.76462 14.2369L11.8774 11.3412C11.8977 11.3119 11.917 11.2826 11.9353 11.2509C12.0822 10.9923 12.1712 10.6958 12.1947 10.3879C12.2181 10.08 12.1751 9.77022 12.0695 9.48609V9.47203L9.91713 3.94195C9.77757 3.57078 9.53761 3.26158 9.23306 3.06051C8.92852 2.85944 8.57572 2.7773 8.22734 2.82633C6.84965 3.03528 5.58507 3.81512 4.66977 5.02019C3.75447 6.22526 3.25106 7.77315 3.25355 9.37476C3.25355 18.6795 9.82155 26.2498 17.8943 26.2498C19.2839 26.2526 20.6268 25.6724 21.6723 24.6174C22.7179 23.5624 23.3944 22.1049 23.5757 20.517C23.6183 20.1155 23.5472 19.709 23.373 19.358C23.1987 19.007 22.9307 18.7303 22.6088 18.5693ZM17.8943 24.3748C14.4439 24.3704 11.136 22.7887 8.69617 19.9766C6.25639 17.1645 4.88407 13.3517 4.8803 9.37476C4.87647 8.23041 5.23417 7.12359 5.88658 6.26098C6.539 5.39838 7.44152 4.83898 8.4256 4.68726C8.4252 4.69194 8.4252 4.69665 8.4256 4.70133L10.5607 10.2091L8.45915 13.1084C8.43782 13.1366 8.41844 13.1668 8.4012 13.1986C8.2482 13.4692 8.15844 13.7808 8.14063 14.1031C8.12282 14.4255 8.17755 14.7476 8.29953 15.0384C9.22067 17.2099 11.1189 19.3814 13.0232 20.4419C13.2773 20.5812 13.5585 20.6421 13.8392 20.6187C14.1198 20.5953 14.3904 20.4884 14.6245 20.3084C14.6506 20.2881 14.6758 20.2662 14.6998 20.2427L17.1714 17.8123L21.95 20.2791H21.9612C21.8312 21.4149 21.3465 22.4573 20.598 23.2111C19.8495 23.9649 18.8883 24.3786 17.8943 24.3748Z" fill="#EFA35A"/>
</svg>
